<?xml version="1.0" encoding="UTF-8"?>
<!DOCTYPE svg PUBLIC "-//W3C//DTD SVG 1.1//EN" "http://www.w3.org/Graphics/SVG/1.1/DTD/svg11.dtd">
<!-- Creator: CorelDRAW 2018 (64-Bit) -->
<svg xmlns="http://www.w3.org/2000/svg" xml:space="preserve" width="29.7942mm" height="9.2475mm" version="1.1" style="shape-rendering:geometricPrecision; text-rendering:geometricPrecision; image-rendering:optimizeQuality; fill-rule:evenodd; clip-rule:evenodd"
viewBox="0 0 2658.2 825.05"
 xmlns:xlink="http://www.w3.org/1999/xlink">
 <defs>
  <style type="text/css">
   <![CDATA[
    .fil0 {fill:#2DA83E}
    .fil2 {fill:#2B2A29;fill-rule:nonzero}
    .fil1 {fill:url(#id1)}
   ]]>
  </style>
    <clipPath id="id0">
     <rect y="96.96" width="657.56" height="520.85"/>
    </clipPath>
  <linearGradient id="id1" gradientUnits="userSpaceOnUse" x1="2091.35" y1="82.2" x2="2177.54" y2="746.09">
   <stop offset="0" style="stop-opacity:1; stop-color:#95C12B"/>
   <stop offset="0.2" style="stop-opacity:1; stop-color:#37A842"/>
   <stop offset="0.388235" style="stop-opacity:1; stop-color:#54AF3A"/>
   <stop offset="0.541176" style="stop-opacity:1; stop-color:#C88D5E"/>
   <stop offset="1" style="stop-opacity:1; stop-color:#AB7A19"/>
  </linearGradient>
 </defs>
 <g id="Слой_x0020_1">
  <metadata id="CorelCorpID_0Corel-Layer"/>
  <g id="_1722402074720">
   <g id="_1882647459584">
    <path class="fil0" d="M559.89 420.62c0,6.63 -3.32,9.95 -6.63,16.58 -3.32,6.63 -6.63,16.58 -9.95,26.52 0,9.95 -6.63,16.58 -9.95,26.52 0,6.63 -3.32,16.58 -6.63,23.21 -3.32,6.63 -6.63,9.95 -6.63,16.58 -6.63,9.95 -13.26,19.89 -23.21,26.52 -6.63,3.32 -13.26,6.63 -23.21,6.63 -6.63,0 -16.58,0 -26.52,-3.32l-3.32 -3.32 -49.72 -139.23 0 162.43c0,6.63 0,13.26 0,19.89 0,6.63 0,9.95 0,13.26 0,3.32 0,6.63 0,6.63l3.32 13.26 -9.95 0c-16.58,0 -36.46,-3.32 -49.72,-13.26 -13.26,-13.26 -16.58,-29.83 -16.58,-46.41l0 -261.87 6.63 -3.32 3.32 0c0,0 3.32,0 3.32,0l3.32 -3.32 0 0c0,0 3.32,0 6.63,0 3.32,0 6.63,0 9.95,0 9.95,0 19.89,0 29.83,3.32 9.95,3.32 16.58,6.63 26.52,13.26 6.63,6.63 16.58,16.58 19.89,26.52 9.95,9.95 13.26,23.21 19.89,36.46l0 0 0 0c0,3.32 0,3.32 3.32,6.63 0,3.32 3.32,6.63 3.32,13.26 3.32,3.32 3.32,9.95 6.63,16.58 0,6.63 3.32,9.95 6.63,16.58 0,6.63 3.32,16.58 6.63,23.21l26.52 -76.24 0 0c3.32,-13.26 9.95,-26.52 16.58,-36.46 6.63,-9.95 16.58,-19.89 23.21,-26.52 9.95,-6.63 16.58,-9.95 26.52,-13.26 9.95,-3.32 19.89,-3.32 29.83,-3.32 3.32,0 6.63,0 9.95,0 3.32,0 3.32,0 6.63,0l0 0 0 3.32c3.32,0 3.32,0 6.63,0l0 0 9.95 3.32 0 268.5c0,6.63 0,13.26 0,19.89 0,6.63 0,9.95 0,13.26 0,3.32 0,6.63 0,6.63l3.32 13.26 -13.26 0c-16.58,0 -33.14,-3.32 -46.41,-13.26 -13.26,-13.26 -19.89,-29.83 -19.89,-46.41l3.32 -152.48 -0.02 0.02z"/>
    <path class="fil0" d="M901.32 606.25c-3.32,9.95 -9.95,13.26 -16.58,16.58 -6.63,6.63 -16.58,6.63 -23.21,6.63 -6.63,3.32 -13.26,3.32 -19.89,3.32 -23.21,0 -49.72,0 -72.93,-6.63 -16.58,-3.32 -36.46,-9.95 -49.72,-23.21 -16.58,-13.26 -26.52,-33.14 -33.14,-49.72 -6.63,-23.21 -9.95,-53.04 -9.95,-76.24l0 -82.88c0,-19.89 3.32,-36.46 13.26,-53.04 3.32,-6.63 6.63,-13.26 13.26,-16.58 3.32,-6.63 9.95,-9.95 16.58,-9.95 6.63,-3.32 9.95,-3.32 13.26,-6.63 6.63,0 9.95,0 16.58,0l0 0 0 0c6.63,-3.32 13.26,-3.32 19.89,-3.32 6.63,0 13.26,0 19.89,0l39.78 0c13.26,0 26.52,0 39.78,0 6.63,0 9.95,0 16.58,-3.32l0 0 13.26 0 0 13.26c0,9.95 0,19.89 -6.63,29.83 -3.32,6.63 -9.95,9.95 -16.58,16.58l0 0 0 0c-6.63,3.32 -16.58,3.32 -23.21,6.63 -6.63,0 -13.26,0 -19.89,0l-76.24 0c0,0 0,0 -3.32,0 0,0 0,0 0,0l0 0 0 0c0,0 0,0 0,0l0 0 0 3.32c0,0 0,0 0,0 -3.32,3.32 -3.32,3.32 -3.32,6.63l3.32 46.41 109.39 0 0 9.95c0,13.26 -3.32,26.52 -13.26,36.46 -9.95,9.95 -26.52,16.58 -39.78,16.58l-56.35 0c0,9.95 0,26.52 3.32,36.46 3.32,9.95 6.63,19.89 13.26,26.52 6.63,6.63 13.26,13.26 23.21,16.58 13.26,3.32 26.52,3.32 39.78,3.32 13.26,0 29.83,0 43.09,0 6.63,0 13.26,-3.32 19.89,-3.32l0 0 0 0 13.26 0 0 13.26c0,9.95 0,19.89 -6.63,26.52l-0.01 0z"/>
    <path class="fil0" d="M1010.71 423.93l106.07 0 0 -59.67c0,-16.58 6.63,-33.14 19.89,-46.41 13.26,-9.95 29.83,-13.26 46.41,-13.26l9.95 0 0 9.95c0,3.32 0,6.63 -3.32,9.95 0,3.32 0,6.63 0,9.95 0,9.95 0,16.58 0,23.21l0 222.09c0,6.63 0,13.26 0,23.21 0,3.32 0,6.63 0,9.95 0,3.32 0,6.63 3.32,6.63l0 13.26 -9.95 0c-16.58,0 -36.46,-3.32 -46.41,-13.26 -16.58,-13.26 -19.89,-29.83 -19.89,-46.41l0 -86.19 -106.07 0 0 92.81c0,6.63 0,13.26 0,23.21 0,3.32 0,6.63 0,9.95 0,3.32 0,6.63 3.32,6.63l0 13.26 -9.95 0c-16.58,0 -36.46,-3.32 -49.72,-13.26 -13.26,-13.26 -16.58,-29.83 -16.58,-46.41l0 -208.83c0,-16.58 3.32,-33.14 16.58,-46.41 13.26,-9.95 33.14,-13.26 49.72,-13.26l9.95 0 0 9.95c-3.32,3.32 -3.32,6.63 -3.32,9.95 0,3.32 0,6.63 0,9.95 0,9.95 0,16.58 0,23.21l0 66.3 0 -0.02z"/>
    <path class="fil0" d="M1335.57 506.81c-3.32,-3.32 -6.63,-3.32 -6.63,-3.32 -3.32,0 -6.63,0 -13.26,-3.32l0 0 0 0c0,0 0,0 -3.32,0l0 79.56c0,6.63 0,13.26 0,23.21 3.32,3.32 3.32,6.63 3.32,9.95 0,3.32 0,6.63 0,6.63l0 13.26 -9.95 0c-16.58,0 -33.14,-3.32 -46.41,-13.26 -13.26,-13.26 -16.58,-29.83 -16.58,-46.41l0 -188.95c0,-13.26 0,-26.52 6.63,-39.78 6.63,-9.95 13.26,-19.89 23.21,-26.52 9.95,-6.63 23.21,-9.95 36.46,-13.26 13.26,-3.32 26.52,-3.32 39.78,-3.32 9.95,0 19.89,0 29.83,0 13.26,3.32 23.21,3.32 33.14,6.63 9.95,3.32 23.21,9.95 33.14,16.58 9.95,3.32 16.58,9.95 26.52,19.89 6.63,9.95 13.26,19.89 16.58,29.83 3.32,13.26 6.63,23.21 6.63,36.46 -3.32,19.89 -6.63,36.46 -19.89,53.04 -6.63,9.95 -19.89,19.89 -33.14,26.52 3.32,0 3.32,0 3.32,3.32 6.63,3.32 13.26,13.26 16.58,19.89 3.32,6.63 6.63,16.58 9.95,23.21 3.32,9.95 6.63,16.58 13.26,26.52l0 0c3.32,6.63 6.63,13.26 9.95,16.58 3.32,6.63 6.63,9.95 9.95,13.26l0 0c3.32,6.63 6.63,9.95 9.95,13.26l6.63 6.63 -6.63 6.63c-3.32,3.32 -6.63,6.63 -9.95,6.63l0 0 -3.32 0c-3.32,3.32 -6.63,3.32 -13.26,6.63 -6.63,0 -9.95,0 -16.58,0 -9.95,-3.32 -16.58,-3.32 -23.21,-9.95 -9.95,-3.32 -16.58,-9.95 -19.89,-16.58 -9.95,-6.63 -16.58,-16.58 -19.89,-26.52 -9.95,-13.26 -16.58,-29.83 -23.21,-43.09 -3.32,-6.63 -9.95,-13.26 -16.58,-19.89 -6.63,-3.32 -16.58,-6.63 -23.21,-9.95l0 0 0 0c0,0 -3.32,0 -3.32,0 -3.32,0 -3.32,0 -6.63,0l0 0.02zm-23.21 -62.98c6.63,0 9.95,0 13.26,3.32 6.63,0 13.26,0 19.89,0 6.63,3.32 13.26,3.32 19.89,3.32 13.26,0 29.83,-3.32 39.78,-9.95 9.95,-6.63 13.26,-19.89 13.26,-29.83 3.32,-9.95 0,-16.58 -3.32,-23.21 -3.32,-6.63 -6.63,-9.95 -13.26,-16.58 -6.63,-3.32 -16.58,-6.63 -23.21,-6.63 -9.95,-3.32 -19.89,-3.32 -29.83,-3.32 -3.32,3.32 -13.26,3.32 -16.58,6.63 -6.63,0 -9.95,3.32 -13.26,6.63 0,0 -3.32,3.32 -3.32,6.63 -3.32,0 -3.32,3.32 -3.32,6.63 0,6.63 0,9.95 0,16.58 0,6.63 0,13.26 0,16.58 0,6.63 0,13.26 0,19.89 0,0 0,3.32 0,3.32l0.02 0z"/>
    <path class="fil0" d="M1554.35 579.73l0 -215.46c0,-16.58 3.32,-36.46 16.58,-46.41 13.26,-9.95 33.14,-13.26 49.72,-13.26l9.95 0 -3.32 9.95c0,3.32 0,6.63 0,6.63 0,6.63 0,9.95 0,13.26 0,6.63 0,16.58 0,23.21l0 215.46c0,16.58 -6.63,33.14 -19.89,46.41 -13.26,9.95 -29.83,13.26 -46.41,13.26l-9.95 0 0 -13.26c0,0 0,-3.32 3.32,-6.63 0,-3.32 0,-6.63 0,-9.95 0,-9.95 0,-16.58 0,-23.21z"/>
    <path class="fil0" d="M1905.73 364.27c-3.32,3.32 -9.95,6.63 -16.58,6.63 -3.32,0 -9.95,-3.32 -13.26,-3.32 -3.32,-3.32 -6.63,-3.32 -13.26,-3.32 -3.32,-3.32 -6.63,-3.32 -13.26,-6.63 -6.63,0 -13.26,0 -19.89,0 -9.95,0 -19.89,3.32 -29.83,6.63 -9.95,3.32 -19.89,9.95 -26.52,19.89 -9.95,9.95 -16.58,19.89 -19.89,33.14 -6.63,16.58 -6.63,33.14 -6.63,49.72 0,16.58 0,36.46 6.63,53.04 3.32,13.26 9.95,23.21 19.89,33.14 6.63,9.95 16.58,16.58 26.52,19.89 9.95,3.32 19.89,6.63 29.83,6.63 9.95,0 19.89,0 26.52,-3.32 6.63,-3.32 9.95,-6.63 13.26,-9.95 3.32,-3.32 6.63,-9.95 6.63,-13.26 3.32,-6.63 3.32,-16.58 3.32,-23.21l0 -19.89c0,-3.32 0,-6.63 -3.32,-9.95 0,0 0,0 0,0l0 0 0 -3.32c0,0 -3.32,0 -3.32,0l-19.89 0c-13.26,0 -26.52,-3.32 -36.46,-13.26 -9.95,-9.95 -16.58,-23.21 -16.58,-39.78l0 -9.95 72.93 0c13.26,0 26.52,3.32 36.46,9.95 9.95,3.32 19.89,9.95 26.52,19.89 3.32,6.63 6.63,16.58 9.95,26.52 3.32,9.95 3.32,23.21 3.32,33.14l0 16.58c0,13.26 -3.32,26.52 -6.63,39.78 -6.63,13.26 -13.26,23.21 -23.21,29.83 -13.26,9.95 -26.52,16.58 -39.78,19.89 -16.58,6.63 -33.14,6.63 -49.72,6.63 -19.89,0 -39.78,-3.32 -59.67,-9.95 -19.89,-6.63 -36.46,-19.89 -53.04,-33.14 -13.26,-13.26 -26.52,-33.14 -33.14,-53.04 -9.95,-23.21 -16.58,-46.41 -16.58,-72.93 0,-23.21 6.63,-49.72 16.58,-72.93 6.63,-19.89 19.89,-36.46 33.14,-49.72 16.58,-16.58 33.14,-26.52 53.04,-33.14 19.89,-6.63 39.78,-9.95 59.67,-9.95 13.26,0 23.21,0 36.46,3.32 9.95,3.32 16.58,6.63 26.52,9.95 6.63,3.32 13.26,9.95 16.58,13.26 3.32,3.32 9.95,9.95 9.95,13.26l3.32 3.32 -3.32 6.63c0,0 0,3.32 -3.32,3.32 0,3.32 0,3.32 -3.32,6.63 0,0 -3.32,3.32 -6.63,3.32l0.01 0.03z"/>
    <path class="fil0" d="M1991.91 579.73l0 -215.46c0,-16.58 6.63,-36.46 19.89,-46.41 13.26,-9.95 29.83,-13.26 46.41,-13.26l9.95 0 0 9.95c0,3.32 0,6.63 0,6.63 -3.32,6.63 -3.32,9.95 -3.32,13.26 0,6.63 0,16.58 0,23.21l0 215.46c0,16.58 -3.32,33.14 -16.58,46.41 -13.26,9.95 -29.83,13.26 -46.41,13.26l-13.26 0 3.32 -13.26c0,0 0,-3.32 0,-6.63 0,-3.32 0,-6.63 0,-9.95 0,-9.95 0,-16.58 0,-23.21z"/>
    <path class="fil0" d="M2369.81 576.41l0 0c6.63,3.32 13.26,3.32 19.89,3.32 9.95,0 19.89,-3.32 29.83,-6.63 9.95,-3.32 19.89,-9.95 26.52,-19.89 9.95,-9.95 16.58,-23.21 19.89,-33.14 6.63,-16.58 6.63,-33.14 6.63,-53.04 0,-16.58 0,-33.14 -6.63,-49.72 -3.32,-13.26 -9.95,-23.21 -19.89,-33.14 -6.63,-9.95 -16.58,-16.58 -26.52,-19.89 -9.95,-6.63 -19.89,-6.63 -29.83,-6.63 -9.95,0 -19.89,0 -29.83,6.63 -9.95,3.32 -19.89,9.95 -26.52,19.89 -9.95,9.95 -16.58,19.89 -19.89,33.14 -6.63,13.26 -6.63,29.83 -6.63,46.41l0 0c0,0 0,3.32 0,3.32 0,16.58 0,36.46 6.63,53.04 3.32,9.95 9.95,23.21 19.89,33.14 6.63,9.95 16.58,16.58 26.52,19.89 3.32,0 6.63,3.32 9.95,3.32l0 -0.02zm19.89 59.67c-19.89,0 -39.78,-3.32 -59.67,-9.95 -6.63,-3.32 -16.58,-6.63 -23.21,-13.26l0 0c-9.95,-3.32 -19.89,-9.95 -29.83,-19.89 -13.26,-13.26 -26.52,-33.14 -33.14,-53.04 -6.63,-9.95 -6.63,-16.58 -9.95,-26.52l0 0c-3.32,-13.26 -3.32,-29.83 -3.32,-46.41l0 0 0 0c0,-23.21 0,-46.41 9.95,-66.3l0 0c0,0 0,-3.32 3.32,-3.32 6.63,-19.89 19.89,-39.78 33.14,-53.04 16.58,-16.58 33.14,-26.52 53.04,-33.14 19.89,-6.63 39.78,-9.95 59.67,-9.95 19.89,0 39.78,3.32 59.67,9.95 19.89,6.63 36.46,16.58 53.04,33.14 16.58,13.26 26.52,33.14 36.46,53.04 9.95,23.21 13.26,46.41 13.26,69.61 0,26.52 -3.32,49.72 -13.26,72.93 -9.95,19.89 -19.89,39.78 -36.46,53.04 -16.58,13.26 -33.14,26.52 -53.04,33.14 -19.89,6.63 -39.78,9.95 -59.67,9.95l0 0.01z"/>
    <path class="fil1" d="M2058.21 29.47c-135.91,-66.3 -261.87,0 -261.87,0 0,0 3.32,0 3.32,0 23.21,9.95 49.72,33.14 72.93,62.98 26.52,36.46 36.46,59.67 49.72,86.19 13.26,26.52 39.78,46.41 53.04,53.04 43.09,23.21 102.76,23.21 139.23,0 -29.83,-62.98 -109.39,-142.54 -155.8,-165.74l3.32 0c-3.32,-3.32 179,56.35 179,215.46 0,420.99 -56.35,384.52 -344.74,420.99l76.24 0 39.78 0 9.95 16.58 62.98 -16.58 23.21 29.83 43.09 -29.83 36.46 -13.26c56.35,-16.58 9.95,29.83 -16.58,69.61l6.63 0c23.21,-19.89 46.41,-43.09 69.61,-66.3 13.26,3.32 23.21,6.63 36.46,9.95l29.83 46.41 3.32 -3.32c-9.95,-69.61 43.09,-79.56 76.24,-23.21 0,3.32 6.63,3.32 6.63,6.63l3.32 0 0 -26.52 39.78 23.21 16.58 -26.52c59.67,23.21 53.04,16.58 116.02,0 -285.08,0 -301.65,-145.85 -298.34,-417.67 3.32,-139.23 116.02,-179 112.7,-175.69l3.32 0c-33.14,19.89 -86.19,86.19 -102.76,135.91 33.14,16.58 76.24,9.95 106.07,-9.95 9.95,-6.63 26.52,-23.21 33.14,-46.41 9.95,-19.89 13.26,-36.46 29.83,-66.3 13.26,-26.52 33.14,-46.41 49.72,-53.04l0 -3.32c0,0 -99.44,-36.46 -192.26,23.21 -72.93,46.41 -59.67,99.44 -56.35,135.91 -16.58,-76.24 -16.58,-152.48 -102.76,-192.26l-0.01 0.01z"/>
    <path class="fil2" d="M2598.53 201.84c9.95,0 19.89,3.32 29.83,6.63 6.63,6.63 16.58,13.26 19.89,23.21 6.63,9.95 9.95,19.89 9.95,29.83 0,9.95 -3.32,19.89 -9.95,29.83 -3.32,9.95 -9.95,16.58 -19.89,19.89 -9.95,6.63 -19.89,9.95 -29.83,9.95 -9.95,0 -19.89,-3.32 -29.83,-9.95 -9.95,-3.32 -16.58,-9.95 -23.21,-19.89 -3.32,-9.95 -6.63,-19.89 -6.63,-29.83 0,-9.95 3.32,-19.89 6.63,-29.83 6.63,-9.95 13.26,-16.58 23.21,-23.21 9.95,-3.32 19.89,-6.63 29.83,-6.63zm0 9.95c-9.95,0 -16.58,3.32 -26.52,6.63 -6.63,3.32 -13.26,9.95 -16.58,16.58 -6.63,9.95 -6.63,16.58 -6.63,26.52 0,6.63 0,16.58 6.63,23.21 3.32,9.95 9.95,13.26 16.58,19.89 9.95,3.32 16.58,6.63 26.52,6.63 6.63,0 16.58,-3.32 23.21,-6.63 9.95,-6.63 13.26,-9.95 19.89,-19.89 3.32,-6.63 6.63,-16.58 6.63,-23.21 0,-9.95 -3.32,-16.58 -6.63,-26.52 -6.63,-6.63 -9.95,-13.26 -19.89,-16.58 -6.63,-3.32 -16.58,-6.63 -23.21,-6.63zm-26.52 82.87l0 -66.3 23.21 0c6.63,0 9.95,3.32 13.26,3.32 6.63,0 6.63,3.32 9.95,6.63 3.32,3.32 3.32,6.63 3.32,9.95 0,3.32 -3.32,6.63 -6.63,9.95 -3.32,3.32 -6.63,6.63 -13.26,6.63 3.32,0 6.63,3.32 6.63,3.32 3.32,3.32 6.63,6.63 9.95,13.26l6.63 13.26 -13.26 0 -3.32 -9.95c-6.63,-9.95 -9.95,-13.26 -13.26,-16.58 0,0 -3.32,0 -6.63,0l-6.63 0 0 26.52 -9.95 0 -0.01 0zm9.94 -36.46l13.26 0c6.63,0 9.95,0 13.26,-3.32 0,0 3.32,-3.32 3.32,-6.63 0,-3.32 -3.32,-3.32 -3.32,-6.63 0,0 -3.32,0 -3.32,-3.32 -3.32,0 -6.63,0 -9.95,0l-13.26 0 0 19.89 0.01 0.01z"/>
    <path class="fil2" d="M1143.31 808.45c3.32,0 6.63,0 9.95,3.32 3.32,0 9.95,0 13.26,0 6.63,0 13.26,0 16.58,-3.32 3.32,-3.32 6.63,-6.63 6.63,-13.26 0,-6.63 -3.32,-9.95 -3.32,-13.26 -3.32,-3.32 -6.63,-6.63 -9.95,-6.63 -3.32,-3.32 -6.63,-6.63 -9.95,-9.95 -3.32,-3.32 -6.63,-6.63 -9.95,-6.63 -6.63,-3.32 -6.63,-9.95 -9.95,-13.26 -3.32,-3.32 -3.32,-9.95 -3.32,-13.26 0,-9.95 3.32,-16.58 9.95,-23.21 3.32,-3.32 9.95,-6.63 19.89,-6.63 6.63,0 9.95,3.32 16.58,3.32 3.32,0 6.63,3.32 9.95,3.32l-3.32 9.95c-3.32,0 -6.63,0 -9.95,-3.32 -3.32,0 -6.63,0 -13.26,0 -6.63,0 -9.95,0 -13.26,3.32 -3.32,3.32 -3.32,6.63 -3.32,13.26 0,3.32 0,6.63 3.32,9.95 0,3.32 3.32,3.32 6.63,6.63 3.32,3.32 6.63,6.63 13.26,9.95 3.32,3.32 6.63,3.32 9.95,6.63 3.32,3.32 6.63,9.95 6.63,13.26 3.32,3.32 3.32,9.95 3.32,13.26 0,9.95 -3.32,19.89 -6.63,23.21 -6.63,6.63 -16.58,9.95 -26.52,9.95 -6.63,0 -9.95,0 -16.58,-3.32 -3.32,0 -6.63,0 -9.95,-3.32l3.32 -9.95 0.01 -0.01zm76.24 -69.61l9.95 0 0 82.88 -9.95 0 0 -82.88zm-3.31 -26.52c0,0 0,-3.32 3.32,-6.63 0,0 3.32,0 6.63,0 0,0 3.32,0 3.32,0 3.32,3.32 3.32,6.63 3.32,6.63 0,3.32 0,6.63 -3.32,6.63 0,3.32 -3.32,3.32 -3.32,3.32 -3.32,0 -6.63,0 -6.63,-3.32 -3.32,0 -3.32,-3.32 -3.32,-6.63zm79.56 109.39l0 -49.72c0,-9.95 0,-13.26 -3.32,-19.89 0,-3.32 -6.63,-3.32 -9.95,-3.32 -3.32,0 -6.63,0 -9.95,3.32 -3.32,3.32 -6.63,6.63 -6.63,9.95l0 59.67 -13.26 0 0 -82.88 9.95 0 0 9.95 3.32 0c0,-3.32 3.32,-6.63 6.63,-9.95 3.32,0 9.95,-3.32 13.26,-3.32 3.32,0 6.63,3.32 9.95,3.32 3.32,0 3.32,3.32 6.63,3.32 3.32,3.32 3.32,6.63 3.32,9.95 3.32,6.63 3.32,9.95 3.32,16.58l0 53.04 -13.26 0 -0.01 -0.02zm76.24 -3.32c-3.32,3.32 -6.63,3.32 -9.95,6.63 -3.32,0 -6.63,0 -9.95,0 -6.63,0 -9.95,0 -13.26,-3.32 -3.32,-3.32 -6.63,-6.63 -9.95,-9.95 -3.32,-3.32 -3.32,-6.63 -3.32,-13.26 -3.32,-6.63 -3.32,-9.95 -3.32,-16.58 0,-16.58 3.32,-26.52 6.63,-33.14 6.63,-6.63 13.26,-13.26 23.21,-13.26 3.32,0 6.63,3.32 9.95,3.32 3.32,0 6.63,0 9.95,3.32l-3.32 9.95c-6.63,-3.32 -9.95,-3.32 -16.58,-3.32 -3.32,0 -9.95,3.32 -13.26,6.63 -3.32,6.63 -3.32,13.26 -3.32,26.52 0,3.32 0,6.63 0,13.26 0,3.32 3.32,6.63 3.32,9.95 3.32,3.32 3.32,3.32 6.63,6.63 3.32,0 6.63,3.32 9.95,3.32 3.32,0 6.63,0 6.63,-3.32 3.32,0 6.63,0 6.63,-3.32l3.32 9.95 0.01 0zm62.99 0c-3.32,0 -6.63,3.32 -13.26,3.32 -3.32,3.32 -6.63,3.32 -13.26,3.32 -3.32,0 -6.63,0 -13.26,-3.32 -3.32,-3.32 -6.63,-6.63 -9.95,-9.95 0,-3.32 -3.32,-6.63 -3.32,-13.26 -3.32,-3.32 -3.32,-9.95 -3.32,-16.58 0,-16.58 3.32,-26.52 9.95,-33.14 3.32,-6.63 13.26,-13.26 19.89,-13.26 3.32,0 6.63,3.32 9.95,3.32 3.32,0 6.63,3.32 9.95,3.32 0,3.32 3.32,6.63 3.32,9.95 3.32,6.63 3.32,9.95 3.32,16.58 0,3.32 0,3.32 0,6.63 0,3.32 0,3.32 0,6.63l-43.09 0c0,6.63 0,9.95 0,13.26 3.32,3.32 3.32,6.63 6.63,9.95 0,3.32 3.32,6.63 6.63,6.63 0,0 3.32,3.32 6.63,3.32 3.32,0 6.63,-3.32 9.95,-3.32 3.32,0 6.63,-3.32 6.63,-3.32l6.63 9.95 -0.01 -0.02zm-9.95 -46.41c0,-6.63 -3.32,-13.26 -3.32,-16.58 -3.32,-6.63 -6.63,-6.63 -13.26,-6.63 -3.32,0 -6.63,0 -9.95,6.63 -3.32,3.32 -6.63,9.95 -6.63,16.58l33.14 0 0.01 0zm69.61 39.78l19.89 0 0 -82.88 0 -9.95 -6.63 9.95 -13.26 9.95 -6.63 -6.63 29.83 -29.83 6.63 0 0 109.39 19.89 0 0 9.95 -49.72 0 0 -9.95zm66.3 -69.62c0,-13.26 3.32,-23.21 6.63,-29.83 6.63,-6.63 13.26,-9.95 23.21,-9.95 9.95,0 16.58,3.32 23.21,9.95 3.32,9.95 6.63,19.89 6.63,33.14 0,13.26 0,23.21 -3.32,33.14 -3.32,9.95 -6.63,16.58 -9.95,23.21 -3.32,6.63 -9.95,13.26 -13.26,16.58 -6.63,3.32 -13.26,6.63 -19.89,6.63l-3.32 -9.95c9.95,-3.32 19.89,-9.95 26.52,-16.58 3.32,-9.95 6.63,-19.89 9.95,-33.14 -3.32,3.32 -6.63,6.63 -6.63,6.63 -3.32,3.32 -6.63,3.32 -13.26,3.32 -3.32,0 -6.63,0 -9.95,-3.32 -3.32,0 -6.63,-3.32 -6.63,-6.63 -3.32,0 -6.63,-3.32 -6.63,-9.95 -3.32,-3.32 -3.32,-9.95 -3.32,-13.26l0.01 0.01zm13.26 -3.31c0,9.95 0,16.58 3.32,19.89 3.32,3.32 6.63,6.63 13.26,6.63 3.32,0 6.63,-3.32 9.95,-3.32 3.32,-3.32 6.63,-3.32 6.63,-6.63 0,-3.32 0,-3.32 0,-6.63 0,0 0,0 0,-3.32 0,-3.32 0,-6.63 0,-9.95 0,-6.63 -3.32,-9.95 -3.32,-9.95 0,-3.32 -3.32,-6.63 -6.63,-9.95 0,0 -3.32,0 -6.63,0 -6.63,0 -9.95,0 -13.26,6.63 -3.32,3.32 -3.32,9.95 -3.32,16.58l0 0.02zm62.99 3.31c0,-13.26 3.32,-23.21 6.63,-29.83 6.63,-6.63 13.26,-9.95 23.21,-9.95 9.95,0 16.58,3.32 19.89,9.95 6.63,9.95 9.95,19.89 9.95,33.14 0,13.26 -3.32,23.21 -3.32,33.14 -3.32,9.95 -6.63,16.58 -9.95,23.21 -6.63,6.63 -9.95,13.26 -16.58,16.58 -3.32,3.32 -9.95,6.63 -16.58,6.63l-3.32 -9.95c9.95,-3.32 19.89,-9.95 23.21,-16.58 6.63,-9.95 9.95,-19.89 13.26,-33.14 -3.32,3.32 -6.63,6.63 -9.95,6.63 0,3.32 -6.63,3.32 -9.95,3.32 -3.32,0 -6.63,0 -9.95,-3.32 -3.32,0 -6.63,-3.32 -9.95,-6.63 0,0 -3.32,-3.32 -3.32,-9.95 -3.32,-3.32 -3.32,-9.95 -3.32,-13.26l0.04 0.01zm9.94 -3.31c0,9.95 3.32,16.58 6.63,19.89 3.32,3.32 6.63,6.63 13.26,6.63 3.32,0 6.63,-3.32 9.95,-3.32 3.32,-3.32 6.63,-3.32 6.63,-6.63 0,-3.32 0,-3.32 0,-6.63 0,0 0,0 0,-3.32 0,-3.32 0,-6.63 0,-9.95 0,-6.63 -3.32,-9.95 -3.32,-9.95 -3.32,-3.32 -3.32,-6.63 -6.63,-9.95 -3.32,0 -6.63,0 -9.95,0 -3.32,0 -6.63,0 -9.95,6.63 -3.32,3.32 -6.63,9.95 -6.63,16.58l0.01 0.02zm119.34 -6.63c0,6.63 0,13.26 -3.32,19.89 -3.32,6.63 -3.32,13.26 -6.63,19.89 -3.32,6.63 -6.63,9.95 -9.95,16.58 -3.32,6.63 -6.63,13.26 -9.95,16.58l-6.63 6.63 0 3.32 9.95 -3.32 26.52 0 0 9.95 -53.04 0 0 -3.32c3.32,-3.32 3.32,-6.63 6.63,-9.95 3.32,-3.32 6.63,-9.95 9.95,-13.26 3.32,-3.32 6.63,-9.95 6.63,-16.58 3.32,-3.32 6.63,-9.95 9.95,-13.26 0,-6.63 3.32,-13.26 3.32,-16.58 3.32,-6.63 3.32,-9.95 3.32,-16.58 0,-3.32 0,-9.95 -3.32,-13.26 -3.32,-3.32 -6.63,-3.32 -13.26,-3.32 -3.32,0 -6.63,0 -6.63,0 -3.32,3.32 -6.63,3.32 -9.95,6.63l-3.32 -9.95c3.32,-3.32 6.63,-3.32 9.95,-6.63 3.32,0 9.95,-3.32 13.26,-3.32 9.95,0 16.58,3.32 19.89,9.95 3.32,3.32 6.63,9.95 6.63,19.89l0.01 0.02z"/>
   </g>
   <g style="clip-path:url(#id0)">
    <image x="-0" y="96.97" width="657.55" height="520.84" xlink:href="logo_Images\logo_ImgID1.png"/>
   </g>
  </g>
 </g>
</svg>
